<?xml version="1.0" encoding="UTF-8" standalone="no"?>
<!-- Created with Inkscape (http://www.inkscape.org/) -->

<svg
   xmlns:svg="http://www.w3.org/2000/svg"
   xmlns="http://www.w3.org/2000/svg"
   version="1.1"
   width="841.89001"
   height="595.28003"
   viewBox="0 0 841.89 595.28"
   id="Capa_2"
   xml:space="preserve"><defs
   id="defs7" />
<path
   d="m 286.333,353 c -1.645,-1.919 -2.903,-4.666 -5.525,-4.666 -2.964,0 -4.726,-0.822 -7.475,-2 6.2,-3.101 14.348,-2.942 21.252,-4.732 9.551,-2.476 19.229,-4.315 28.719,-7.03 5.544,-1.587 10.467,-4.527 15.696,-6.904 2.678,-1.218 8.984,-0.114 10.86,-2.365 0.888,-1.064 -0.093,-4.886 -0.158,-6.063 -0.222,-3.996 0.485,-8.115 0.965,-12.071 0.177,-1.458 1.033,-4.057 0.667,-5.5 -0.262,-1.031 -3.794,-4.262 -3.512,-4.818 -1.394,2.748 -9.854,-9.55 -11.426,-11.469 -4.55,-5.554 -8.963,-11.819 -12.739,-17.947 0.027,0.044 0.257,0.61 0.346,0.711 -1.229,-1.393 -1.649,-3.125 -3.003,-4.478 -1.814,-1.814 0.526,-5.279 -0.593,-7.741 -0.671,-1.477 -3.213,-2.588 -4.36,-3.837 -1.33,-1.448 -1.617,-3.659 -3.047,-5.088 -4.02,-4.02 -5.618,-9.601 -7.327,-14.728 -0.5,-1.498 -6.421,-4.027 -6.195,-5.072 -0.024,0.114 -7.533,-4.03 -8.145,-5.867 -0.791,-2.374 -2.176,-5.625 -4.099,-7.309 -3.061,-2.679 -3.173,-1.945 -6.521,-2.27 -3.392,-0.328 -7.625,-5.997 -10.146,-8.245 -3.879,-3.461 -8.039,-5.898 -12.901,-7.844 -9.594,-3.839 -18.932,-7.601 -29.288,-8.834 -7.143,-0.85 -14.237,-2.382 -20.964,-4.944 -4.178,-1.592 -4.07,-1.474 -4.699,-5.91 -0.103,-0.724 -9.531,-0.97 -10.574,-0.933 -3.5,0.123 -7.253,-0.88 -10.475,-1.712 -1.723,-0.445 -3.972,-2.097 -5.625,-2.136 -1.919,-0.045 -5.508,1.175 -3.042,-2.531 -2.98,0.493 -8.126,0.706 -10.886,-0.172 -5.685,-1.809 -6.224,-2.285 -3.781,-7.141 -2.9,0.006 -10.914,1.057 -12.105,-2.581 -0.537,-1.638 15.991,-5.058 11.438,-8.439 -0.716,-0.532 -3.346,0.036 -4.417,-0.062 -2.882,-0.265 -7.024,-1.124 -8.964,-3.485 -0.981,-1.195 7.881,-3.183 8.872,-3.49 6.23,-1.933 12.433,-1.008 18.895,-1.4 9.769,-0.592 19.536,-1.203 29.301,-1.853 16.245,-1.082 31.786,-1.958 48.06,-1.064 14.368,0.789 32.223,-0.464 45.274,5.946 13.542,6.652 28.439,12.354 39.48,23.049 5.611,5.437 8.441,12.107 11.815,19.129 3.43,7.137 8.003,14.868 10.518,22.397 2.32,6.947 5.69,13.877 9.111,20.339 3.595,6.792 6.04,13.857 9.826,20.573 7.267,12.894 24.432,16.976 37.34,21.493 7.887,2.76 15.86,7.203 22.391,12.428 6.282,5.026 17.362,6.019 25.037,5.93 8.673,-0.101 17.746,-3.317 26.215,-5.197 8.007,-1.778 16.07,-3.31 24.029,-5.299 3.913,-0.978 8.177,-0.903 12.189,-1.139 6.072,-0.357 11.854,-2.267 17.83,-3.27 7.903,-1.326 16.728,0.856 24.368,2.767 14.016,3.504 27.982,7.387 40.736,14.336 6.273,3.418 10.049,5.645 14.711,10.939 4.255,4.831 8.727,9.404 13.217,14.02 7.908,8.128 17.409,14.867 24.191,23.975 7.86,10.555 15.922,20.924 24.091,31.241 1.578,1.994 2.193,4.635 3.755,6.623 2.163,2.754 5.239,5.625 6.797,8.741 1.966,3.933 4.794,10.204 -2.184,5.604 -2.51,-1.654 -4.775,-3.757 -7.15,-5.604 0.85,4.813 2.415,9.283 1,14 -0.777,-1.333 -1.556,-2.667 -2.333,-4 -0.333,1.333 -0.667,2.667 -1,4 -2.097,-0.225 -2.871,-1.09 -3.049,-3.013 -0.243,-2.618 -2.047,-3.731 -4.284,-4.654 2.141,5.978 -9.439,-2.243 -10.675,-3.106 -0.344,-0.24 -3.862,2.035 -5.825,1.232 -1.599,-0.654 -2.464,-1.788 -3.521,-3.079 -1.829,-2.232 -3.782,-2.656 -6.322,-3.744 -5.868,-2.515 -11.643,-5.262 -16.934,-8.899 -1.616,-1.111 -3.278,-0.736 -5.237,-0.736 -2.024,0 -4.121,-2.762 -5.484,-4.007 -5.673,-5.181 -12.819,-8.181 -18.331,-13.586 -5.527,-5.422 -10.597,-11.692 -17.386,-15.481 -7.218,-4.027 -14.012,-7.502 -21.868,-10.12 -6.185,-2.062 -13.948,-6.873 -20.467,-6.121 -7.369,0.851 -14.727,-0.379 -22.075,0.457 -8.473,0.964 -16.587,2.191 -25.109,2.191 -1.667,0 -5.977,-2.372 -6.732,-1.752 -3.792,3.115 -5.901,3.674 -10.705,4.143 -6.461,0.63 -12.509,0.132 -18.994,-0.057 -6.369,-0.186 -12.77,0 -19.144,0 -1.425,0 -11.259,11.591 -10.411,13.215 5.734,10.991 15.211,18.541 23.784,27.399 4.867,5.03 9.717,9.87 14.917,14.551 3.198,2.878 10.854,8.146 15.187,8.835 -1.713,0.504 -4.179,1.815 -5.952,1.639 -1.305,-0.131 -5.945,-1.335 -6.642,-0.222 -1.328,2.125 -1.583,4.883 -3.604,6.397 -2.129,1.597 -7.324,0.519 -9.86,0.519 -1.267,0 -4.84,-2.684 -5.518,-1.618 -2.195,3.449 -3.775,3.714 -8.067,3.573 -4.982,-0.163 -9.578,-2.569 -14.023,-4.621 0.578,6.396 -4.98,4.738 -9.912,4.766 -6.624,0.038 -9.777,0.305 -13.089,-5.766 -5.619,3.659 -14.718,3.099 -20.363,-0.576 -1.412,-0.92 -3.22,-2.091 -4.971,-2.091 -1.156,0 -5.211,0.341 -6.067,-0.596 -1.755,-1.923 -2.655,-5.018 -3.6,-7.404 -1.742,1.268 -5.103,4.324 -7.591,3.219 -3.511,-1.561 -7.071,-3.82 -11.075,-2.219 -2.397,0.959 -6.871,-1.829 -9.037,-2.84 -4.368,-2.038 -4.654,-2.244 -5.963,-6.827 -4.507,1.898 -7.276,3.557 -11.815,0.963 -5.15,-2.943 -7.771,-3.644 -7.519,-9.963 -3.519,0.117 -8.308,1.321 -11.408,-0.487 -1.938,-1.132 -8.592,-3.818 -8.592,-6.314 0,-4.031 -5.134,-4.091 -8.543,-5.927 -4.033,-2.174 -6.99,-2.747 -2.457,-6.274 z"
   id="path3"
   style="stroke:#000000;stroke-miterlimit:10" />
</svg>